<?xml version="1.0" encoding="utf-8"?>
<!-- Generator: Adobe Illustrator 18.1.1, SVG Export Plug-In . SVG Version: 6.00 Build 0)  -->
<!DOCTYPE svg PUBLIC "-//W3C//DTD SVG 1.1//EN" "http://www.w3.org/Graphics/SVG/1.1/DTD/svg11.dtd">
<svg version="1.1" id="Layer_1" xmlns="http://www.w3.org/2000/svg" xmlns:xlink="http://www.w3.org/1999/xlink" x="0px" y="0px"
	 viewBox="0 0 400 400" enable-background="new 0 0 400 400" xml:space="preserve">
<g>
	<g>
		<path fill="#25292B" d="M316,282.5c-1.8,0-3.6-0.5-5.2-1.6c-4.3-2.9-5.4-8.7-2.6-12.9c8.6-12.8,13.1-27.8,13.1-43.4
			c0-15.6-4.5-30.6-13.1-43.4c-2.9-4.3-1.7-10.1,2.5-12.9c4.3-2.9,10-1.7,12.9,2.5c10.7,15.9,16.3,34.5,16.3,53.8
			c0,19.3-5.6,37.9-16.3,53.8C321.9,281.1,319,282.5,316,282.5L316,282.5z"/>
	</g>
	<g>
		<path fill="#25292B" d="M289.3,267.4c-1.8,0-3.6-0.5-5.2-1.6c-4.3-2.9-5.4-8.7-2.5-12.9c5.7-8.4,8.7-18.1,8.7-28.3
			c0-10.1-3-19.9-8.7-28.3c-2.9-4.3-1.8-10,2.5-12.9c4.3-2.9,10-1.8,12.9,2.5c7.8,11.5,11.9,24.9,11.9,38.7
			c0,13.9-4.1,27.3-11.9,38.7C295.3,266,292.3,267.4,289.3,267.4L289.3,267.4z"/>
	</g>
	<path fill="#25292B" d="M245.8,184c-3.7-37.3-35.2-66.5-73.5-66.5c-31.7,0-59.8,20.4-69.9,50c-23.9,3.5-42.4,24.1-42.4,49
		c0,27.3,22.3,49.6,49.7,49.6h127.2c22.9,0,41.6-18.6,41.6-41.5C278.5,204.7,264.5,188.1,245.8,184z M236.9,247.5H109.7
		c-17.1,0-31.1-13.9-31.1-31c0-17.1,13.9-31,31.1-31c8.3,0,16.1,3.2,22,9.1c3.6,3.6,9.5,3.6,13.2,0c3.6-3.6,3.6-9.5,0-13.2
		c-6.4-6.4-14.3-10.8-22.9-13c8.8-19.4,28.4-32.4,50.3-32.4c30.5,0,55.3,24.8,55.3,55.2c0,5.9-0.9,11.7-2.8,17.3
		c-1.6,4.9,1,10.1,5.9,11.8c1,0.3,2,0.5,2.9,0.5c3.9,0,7.5-2.5,8.8-6.4c1.2-3.7,2.1-7.4,2.7-11.2c8.6,3.3,14.7,11.6,14.7,21.3
		C259.9,237.2,249.5,247.5,236.9,247.5z"/>
</g>
</svg>
